<svg width="1136" height="112" viewBox="0 0 1136 112" fill="none" xmlns="http://www.w3.org/2000/svg">
<path d="M16 112V96H0V80H32V96H80V64H16V48H0V16H16V0H96V16H112V32H80V16H32V48H96V64H112V96H96V112H16ZM128 112V0H160V48H208V0H240V112H208V64H160V112H128ZM256 112V32H272V16H288V0H336V16H352V32H368V112H336V80H288V112H256ZM288 64H336V32H320V16H304V32H288V64ZM384 112V32H400V16H416V0H464V16H480V32H496V112H464V80H416V112H384ZM416 64H464V32H448V16H432V32H416V64ZM528 112V96H512V80H544V96H592V64H528V48H512V16H528V0H608V16H624V32H592V16H544V48H608V64H624V96H608V112H528ZM688 112V16H656V0H752V16H720V112H688ZM768 112V0H800V48H848V0H880V112H848V64H800V112H768ZM896 112V0H992V16H1008V64H976V80H992V96H1008V112H960V96H944V80H928V112H896ZM928 64H960V48H976V16H928V64ZM1024 112V32H1040V16H1056V0H1104V16H1120V32H1136V112H1104V80H1056V112H1024ZM1056 64H1104V32H1088V16H1072V32H1056V64Z" fill="#DFAA05"/>
</svg>
