<svg width="753" height="240" viewBox="0 0 753 240" fill="none" xmlns="http://www.w3.org/2000/svg">
<path d="M16.5 112V96H0.5V80H32.5V96H80.5V64H16.5V48H0.5V16H16.5V0H96.5V16H112.5V32H80.5V16H32.5V48H96.5V64H112.5V96H96.5V112H16.5ZM128.5 112V0H160.5V48H208.5V0H240.5V112H208.5V64H160.5V112H128.5ZM256.5 112V32H272.5V16H288.5V0H336.5V16H352.5V32H368.5V112H336.5V80H288.5V112H256.5ZM288.5 64H336.5V32H320.5V16H304.5V32H288.5V64ZM384.5 112V32H400.5V16H416.5V0H464.5V16H480.5V32H496.5V112H464.5V80H416.5V112H384.5ZM416.5 64H464.5V32H448.5V16H432.5V32H416.5V64ZM528.5 112V96H512.5V80H544.5V96H592.5V64H528.5V48H512.5V16H528.5V0H608.5V16H624.5V32H592.5V16H544.5V48H608.5V64H624.5V96H608.5V112H528.5ZM688.5 112V16H656.5V0H752.5V16H720.5V112H688.5ZM192.5 240V128H224.5V176H272.5V128H304.5V240H272.5V192H224.5V240H192.5ZM320.5 240V128H416.5V144H432.5V192H400.5V208H416.5V224H432.5V240H384.5V224H368.5V208H352.5V240H320.5ZM352.5 192H384.5V176H400.5V144H352.5V192ZM448.5 240V160H464.5V144H480.5V128H528.5V144H544.5V160H560.5V240H528.5V208H480.5V240H448.5ZM480.5 192H528.5V160H512.5V144H496.5V160H480.5V192Z" fill="#DFAA05"/>
</svg>
