<svg width="284" height="28" viewBox="0 0 284 28" fill="none" xmlns="http://www.w3.org/2000/svg">
<path d="M4 28V24H0V20H8V24H20V16H4V12H0V4H4V0H24V4H28V8H20V4H8V12H24V16H28V24H24V28H4ZM32 28V0H40V12H52V0H60V28H52V16H40V28H32ZM64 28V8H68V4H72V0H84V4H88V8H92V28H84V20H72V28H64ZM72 16H84V8H80V4H76V8H72V16ZM96 28V8H100V4H104V0H116V4H120V8H124V28H116V20H104V28H96ZM104 16H116V8H112V4H108V8H104V16ZM132 28V24H128V20H136V24H148V16H132V12H128V4H132V0H152V4H156V8H148V4H136V12H152V16H156V24H152V28H132ZM172 28V4H164V0H188V4H180V28H172ZM192 28V0H200V12H212V0H220V28H212V16H200V28H192ZM224 28V0H248V4H252V16H244V20H248V24H252V28H240V24H236V20H232V28H224ZM232 16H240V12H244V4H232V16ZM256 28V8H260V4H264V0H276V4H280V8H284V28H276V20H264V28H256ZM264 16H276V8H272V4H268V8H264V16Z" fill="#DFAA05"/>
</svg>
